<svg xmlns="http://www.w3.org/2000/svg" width="316" height="103"><g><g fill="none"><path d="M0 0h50v50H0z"/><path d="M0 53h50v50H0z"/><path d="M54 53h50v50H54z"/><path d="M54 0h50v50H54z"/><path d="M107 0h50v50h-50z"/><path d="M107 53h50v50h-50z"/><path d="M160 53h50v50h-50z"/><path d="M160 0h50v50h-50z"/><path d="M213 0h50v50h-50z"/><path d="M213 53h50v50h-50z"/><path d="M266 53h50v50h-50z"/><path d="M266 0h50v50h-50z"/><path d="M0 0h316v103H0z"/></g><path fill="none" stroke="#9397CD" stroke-width="2" stroke-miterlimit="10" d="M24.94 48.46s10.98-5.45 15.2-11.8c4.24-6.37 3.4-22.73 3.4-24.54s.84-5.45.84-5.45-5.08 0-9.3-.9C30.85 4.84 24.94 1.2 24.94 1.2S19.02 4.84 14.8 5.75c-4.23.9-9.3.9-9.3.9s.84 3.64.84 5.46-.84 18.17 3.4 24.53c4.2 6.36 15.2 11.8 15.2 11.8z"/><g fill="#9397CD"><path d="M23 16h4v16h-4zM17 22h16v4H17z"/></g><path fill="none" stroke="#9397CD" stroke-width="2" stroke-miterlimit="10" d="M91 41c0 1.66-1.34 3-3 3H70c-1.66 0-3-1.34-3-3V22c0-1.66 1.34-3 3-3h18c1.66 0 3 1.34 3 3v19z"/><path fill="none" stroke="#9397CD" stroke-width="3" stroke-miterlimit="10" d="M87.5 16v-5.76s-.98-4.5-8.5-4.5c-7.5 0-8.5 5.25-8.5 5.25v5"/><circle cx="78.5" cy="28.5" r="2.5" fill="#9397CD"/><path fill="#9397CD" d="M80 34c0 .55-.67 1-1.5 1s-1.5-.45-1.5-1v-4c0-.55.67-1 1.5-1s1.5.45 1.5 1v4zM61 27h3v8h-3zM61 41.45l-6.22-10.5L61 20.48zM94 27h3v8h-3zM97 21.02l6.22 10L97 41z"/><path fill="none" stroke="#3D4358" stroke-width="2" stroke-miterlimit="10" d="M91 94c0 1.66-1.34 3-3 3H70c-1.66 0-3-1.34-3-3V75c0-1.66 1.34-3 3-3h18c1.66 0 3 1.34 3 3v19z"/><path fill="none" stroke="#3D4358" stroke-width="3" stroke-miterlimit="10" d="M87.5 69v-5.76s-.98-4.5-8.5-4.5c-7.5 0-8.5 5.25-8.5 5.25v5"/><circle cx="78.5" cy="81.5" r="2.5" fill="#1A171B"/><path fill="#1A171B" d="M80 87c0 .55-.67 1-1.5 1s-1.5-.45-1.5-1v-4c0-.55.67-1 1.5-1s1.5.45 1.5 1v4z"/><path fill="#3D4358" d="M61 80h3v8h-3zM61 94.45l-6.22-10.5L61 73.48zM94 80h3v8h-3zM97 74.02l6.22 10L97 94z"/><g fill="none" stroke="#9397CD" stroke-width="2" stroke-miterlimit="10"><path d="M148.88 24.52c4.6-4.6 4.6-12.05 0-16.64-4.6-4.6-12.06-4.6-16.65 0-3.5 3.5-4.33 8.63-2.5 12.9l-3.12 3.12-3.22.1-.74 4.26-3.34-.02-.86 4.14-3.38-.05-.33 3.22-2.73 2.5V45h7.12l17.44-17.6c4.16 1.5 8.98.45 12.3-2.88zM117.45 39.7l14.98-14.97"/><circle cx="142.424" cy="13.91" r="2.943"/></g><g fill="none" stroke="#3D4358" stroke-width="2" stroke-miterlimit="10"><path d="M148.88 77.52c4.6-4.6 4.6-12.05 0-16.64s-12.06-4.6-16.65 0c-3.5 3.5-4.33 8.63-2.5 12.9l-3.12 3.12-3.22.1-.74 4.26-3.34-.02-.86 4.14-3.38-.05-.33 3.22-2.73 2.5V98h7.12l17.44-17.6c4.16 1.5 8.98.45 12.3-2.88zM117.45 92.7l14.98-14.97"/><circle cx="142.424" cy="66.909" r="2.943"/></g><path fill="none" stroke="#9397CD" stroke-width="2" stroke-miterlimit="10" d="M206.3 10.06c1.17 1.18-3.07 11.56-4.24 12.73L179.43 45.4c-1.17 1.17-3.07 1.17-4.24 0l-10.62-10.6c-1.17-1.18-1.17-3.08 0-4.25L187.2 7.94c1.18-1.17 11.56-5.4 12.74-4.24l6.36 6.36z"/><text fill="#9397CD" transform="matrix(.53 -.53 .707 .707 177.361 39.056)" font-family="'Arial-BoldMT'" font-size="12">FREE</text><circle cx="197.106" cy="12.186" r="2" fill="none" stroke="#9397CD" stroke-width="2" stroke-miterlimit="10"/><path fill="none" stroke="#3D4358" stroke-width="2" stroke-miterlimit="10" d="M206.3 63.06c1.17 1.18-3.07 11.56-4.24 12.73L179.43 98.4c-1.17 1.17-3.07 1.17-4.24 0l-10.62-10.6c-1.17-1.18-1.17-3.08 0-4.25l22.63-22.63c1.18-1.17 11.56-5.4 12.74-4.24l6.36 6.36z"/><text fill="#3D4358" transform="matrix(.53 -.53 .707 .707 177.361 92.057)" font-family="'Arial-BoldMT'" font-size="12">FREE</text><circle cx="197.106" cy="65.186" r="2" fill="none" stroke="#3D4358" stroke-width="2" stroke-miterlimit="10"/><g fill="none" stroke="#9397CD" stroke-width="2" stroke-miterlimit="10"><path d="M230 43c0 1.66-1.34 3-3 3h-7c-1.66 0-3-1.34-3-3V24c0-1.66 1.34-3 3-3h7c1.66 0 3 1.34 3 3v19zM230.5 23.5S234 22 235 20s2-4 5-5 5-1 7-5 2-5 2-5 2-1 3 3 0 7-2 9-1 4 1 4 9 2 9 4-1 3-1 3 1 0 1 2-3 4-3 4 1 1 1 3-2 3-2 3-1 1-1 2-5 6-12 4-8-3-12-3"/></g><g fill="none" stroke="#3D4358" stroke-width="2" stroke-miterlimit="10"><path d="M230 95c0 1.66-1.34 3-3 3h-7c-1.66 0-3-1.34-3-3V76c0-1.66 1.34-3 3-3h7c1.66 0 3 1.34 3 3v19zM230.5 75.5S234 74 235 72s2-4 5-5 5-1 7-5 2-5 2-5 2-1 3 3 0 7-2 9-1 4 1 4 9 2 9 4-1 3-1 3 1 0 1 2-3 4-3 4 1 1 1 3-2 3-2 3-1 1-1 2-5 6-12 4-8-3-12-3"/></g><ellipse cx="284.5" cy="40.5" fill="none" stroke="#9397CD" stroke-width="2" stroke-miterlimit="10" rx="16.5" ry="2.5"/><ellipse cx="301.5" cy="40.5" fill="none" stroke="#9397CD" stroke-width="2" stroke-miterlimit="10" rx="2.5" ry="1.5"/><path fill="none" stroke="#9397CD" stroke-width="2" stroke-miterlimit="10" d="M302 39s2-2 4-2 4 1 4 1l-1 1s2 0 3-1 2-3 2-3 0 5-3 7-8 1-9-1"/><path fill="#9397CD" d="M279 29h3v9h-3zM285 24h3v14h-3zM291 16h3v22h-3zM297 7h3v31h-3z"/><ellipse cx="284.5" cy="93.5" fill="none" stroke="#3D4358" stroke-width="2" stroke-miterlimit="10" rx="16.5" ry="2.5"/><ellipse cx="301.5" cy="93.5" fill="none" stroke="#3D4358" stroke-width="2" stroke-miterlimit="10" rx="2.5" ry="1.5"/><path fill="none" stroke="#3D4358" stroke-width="2" stroke-miterlimit="10" d="M302 92s2-2 4-2 4 1 4 1l-1 1s2 0 3-1 2-3 2-3 0 5-3 7-8 1-9-1"/><path fill="#3D4358" d="M279 82h3v9h-3zM285 77h3v14h-3zM291 69h3v22h-3zM297 60h3v31h-3z"/><path fill="none" stroke="#3D4358" stroke-width="2" stroke-miterlimit="10" d="M24.94 101.46s10.98-5.45 15.2-11.8c4.24-6.37 3.4-22.73 3.4-24.54s.84-5.45.84-5.45-5.08 0-9.3-.9c-4.23-.92-10.14-4.56-10.14-4.56s-5.92 3.65-10.14 4.56c-4.23.9-9.3.9-9.3.9s.84 3.64.84 5.46-.84 18.17 3.4 24.53c4.2 6.36 15.2 11.8 15.2 11.8z"/><g fill="#3D4358"><path d="M23 69h4v16h-4zM17 75h16v4H17z"/></g></g></svg>